<svg width="100" height="85" viewBox="0 0 100 85" fill="none" xmlns="http://www.w3.org/2000/svg">
<g id="add-icon">
<path id="Vector" d="M93.6709 63.75C95.3495 63.75 96.9593 62.8545 98.1463 61.2604C99.3332 59.6663 100 57.5043 100 55.25V8.5C100 6.24566 99.3332 4.08365 98.1463 2.48959C96.9593 0.895533 95.3495 0 93.6709 0H60.3165C61.4241 2.5925 62.0253 5.525 62.0253 8.5H93.6709V55.25H65.1899V63.75M77.8481 21.25V29.75H58.8608V85H52.5317V59.5H46.2025V85H39.8734V51H35.1266V29.75C35.1266 27.4957 35.7934 25.3337 36.9803 23.7396C38.1673 22.1455 39.7771 21.25 41.4557 21.25H77.8481ZM55.6962 8.5C55.6962 10.7543 55.0294 12.9163 53.8425 14.5104C52.6555 16.1045 51.0457 17 49.3671 17C47.6885 17 46.0787 16.1045 44.8917 14.5104C43.7048 12.9163 43.038 10.7543 43.038 8.5C43.038 6.24566 43.7048 4.08365 44.8917 2.48959C46.0787 0.895533 47.6885 0 49.3671 0C51.0457 0 52.6555 0.895533 53.8425 2.48959C55.0294 4.08365 55.6962 6.24566 55.6962 8.5Z" fill="white"/>
<path id="Vector_2" d="M28.3544 32.7535H17.7215V50.4335H10.6329V32.7535H0V20.9669H10.6329V3.28687H17.7215V20.9669H28.3544V32.7535Z" fill="white"/>
</g>
</svg>
