<svg width="95" height="95" viewBox="0 0 95 95" fill="none" xmlns="http://www.w3.org/2000/svg">
<g id="mingcute:upload-line" clip-path="url(#clip0_8_112)">
<g id="Group">
<path id="Vector" d="M31.6667 35.625V43.5417H19.7917V79.1667H75.2083V43.5417H63.3333V35.625H75.2083C77.308 35.625 79.3216 36.4591 80.8063 37.9437C82.2909 39.4284 83.125 41.442 83.125 43.5417V79.1667C83.125 81.2663 82.2909 83.2799 80.8063 84.7646C79.3216 86.2493 77.308 87.0833 75.2083 87.0833H19.7917C17.692 87.0833 15.6784 86.2493 14.1937 84.7646C12.7091 83.2799 11.875 81.2663 11.875 79.1667V43.5417C11.875 41.442 12.7091 39.4284 14.1937 37.9437C15.6784 36.4591 17.692 35.625 19.7917 35.625H31.6667ZM50.9992 9.77313L64.2952 23.0652C65.038 23.808 65.4552 24.8153 65.4552 25.8657C65.4552 26.9161 65.038 27.9235 64.2952 28.6663C63.5525 29.409 62.5451 29.8263 61.4947 29.8263C60.4443 29.8263 59.4369 29.409 58.6942 28.6663L51.4583 21.4265V59.375C51.4583 60.4248 51.0413 61.4316 50.299 62.174C49.5566 62.9163 48.5498 63.3333 47.5 63.3333C46.4502 63.3333 45.4434 62.9163 44.701 62.174C43.9587 61.4316 43.5417 60.4248 43.5417 59.375V21.4265L36.3058 28.6663C35.9381 29.034 35.5015 29.3258 35.0209 29.5248C34.5404 29.7238 34.0254 29.8263 33.5053 29.8263C32.9852 29.8263 32.4702 29.7238 31.9897 29.5248C31.5092 29.3258 31.0726 29.034 30.7048 28.6663C30.337 28.2985 30.0453 27.8619 29.8463 27.3814C29.6472 26.9009 29.5448 26.3858 29.5448 25.8657C29.5448 25.3456 29.6472 24.8306 29.8463 24.3501C30.0453 23.8696 30.337 23.433 30.7048 23.0652L44.0048 9.77313C44.9326 8.84615 46.1905 8.32544 47.502 8.32544C48.8135 8.32544 50.0714 8.84615 50.9992 9.77313Z" fill="white"/>
</g>
</g>
<defs>
<clipPath id="clip0_8_112">
<rect width="95" height="95" fill="white"/>
</clipPath>
</defs>
</svg>
