<svg width="95" height="95" viewBox="0 0 95 95" fill="none" xmlns="http://www.w3.org/2000/svg">
<path d="M5.9375 89.0625H47.6392L53.5767 95H0V0H51.7212L77.1875 25.4663V35.625H71.25V29.6875H47.5V5.9375H5.9375V89.0625ZM53.4375 10.1587V23.75H67.0288L53.4375 10.1587ZM11.875 23.75H41.5161V29.6411H11.875V23.75ZM65.2661 35.625V41.5161H11.875V35.625H65.2661ZM11.875 47.5H47.4536V53.3911H11.875V47.5ZM47.5 59.375V65.2661H11.875V59.375H47.5ZM11.875 77.1411V71.25H47.5L41.5625 77.1411H11.875ZM68.1421 69.6265L60.5811 77.1411H89.0625V83.125H60.5811L68.1421 90.686L63.9673 94.8608L49.2163 80.1562L63.9673 65.4517L68.1421 69.6265ZM81.9189 53.4375L74.3579 45.8765L78.5327 41.7017L93.2837 56.4062L78.5327 71.1108L74.3579 66.936L81.9189 59.375H53.4375V53.4375H81.9189Z" fill="white"/>
</svg>
