<svg width="95" height="95" viewBox="0 0 95 95" fill="none" xmlns="http://www.w3.org/2000/svg">
<g id="fluent-mdl2:learning-tools">
<path id="Vector" d="M17.8125 71.25H23.75V77.1875H11.875V17.8125H5.9375V83.125H23.75V89.0625H0V11.875H11.875V5.9375H29.6875C32.4089 5.9375 35.022 6.35498 37.5269 7.18994C40.0317 8.0249 42.3665 9.27734 44.5312 10.9473C46.665 9.27734 48.9844 8.0249 51.4893 7.18994C53.9941 6.35498 56.6227 5.9375 59.375 5.9375H77.1875V11.875H89.0625V49.8657L83.125 47.1753V17.8125H77.1875V44.4849L71.25 41.748V11.875H59.375C57.1794 11.875 55.0765 12.2461 53.0664 12.9883C51.0563 13.7305 49.2008 14.8283 47.5 16.2817V44.4849L41.5625 47.1753V16.2817C39.8926 14.8592 38.0526 13.7769 36.0425 13.0347C34.0324 12.2925 31.9141 11.9059 29.6875 11.875H17.8125V71.25ZM83.125 83.0786L62.3438 93.5156L41.5625 83.0786C41.5625 81.9653 41.578 80.7902 41.6089 79.5532C41.6398 78.3162 41.7635 77.0638 41.98 75.7959C42.1965 74.528 42.5057 73.3374 42.9077 72.2241C43.3097 71.1108 43.8664 70.0749 44.5776 69.1162L35.625 65.0342V92.0312H29.6875V62.3438L62.3438 47.5L95 62.3438L80.1099 69.1162L80.481 69.6265C81.1304 70.5851 81.6252 71.6211 81.9653 72.7344C82.3055 73.8477 82.5684 74.9764 82.7539 76.1206C82.9395 77.2648 83.0477 78.4399 83.0786 79.646C83.1095 80.8521 83.125 81.9963 83.125 83.0786ZM62.3438 53.9941L44.021 62.3438L62.3438 70.6934L80.6665 62.3438L62.3438 53.9941ZM62.3438 86.8823L77.1875 79.4141C77.1566 78.61 77.0947 77.8833 77.002 77.2339C76.9092 76.5845 76.7391 75.9505 76.4917 75.332C76.2443 74.7135 75.9969 74.1105 75.7495 73.5229C75.5021 72.9354 75.1465 72.286 74.6826 71.5747L62.3438 77.1875L50.0049 71.5747C49.541 72.3169 49.1699 72.9818 48.8916 73.5693C48.6133 74.1569 48.3659 74.7445 48.1494 75.332C47.9329 75.9196 47.7938 76.5381 47.7319 77.1875C47.6701 77.8369 47.6082 78.5946 47.5464 79.4604L62.3438 86.8823Z" fill="white"/>
</g>
</svg>
