<svg width="95" height="95" viewBox="0 0 95 95" fill="none" xmlns="http://www.w3.org/2000/svg">
<g id="carbon:machine-learning-model">
<path id="Vector" d="M80.1562 71.25C78.8338 71.256 77.5298 71.5605 76.3414 72.1406L63.5758 59.375H53.4375V65.3125H61.1147L72.1436 76.3414C71.5631 77.5298 71.2577 78.8337 71.25 80.1562C71.25 81.9177 71.7723 83.6397 72.751 85.1043C73.7296 86.5689 75.1206 87.7105 76.748 88.3846C78.3754 89.0586 80.1661 89.235 81.8938 88.8914C83.6214 88.5477 85.2084 87.6995 86.4539 86.4539C87.6995 85.2084 88.5477 83.6214 88.8914 81.8938C89.235 80.1661 89.0586 78.3754 88.3846 76.748C87.7105 75.1206 86.5689 73.7296 85.1043 72.751C83.6397 71.7723 81.9177 71.25 80.1562 71.25ZM80.1562 83.125C79.5691 83.125 78.9951 82.9509 78.5069 82.6247C78.0187 82.2985 77.6382 81.8348 77.4135 81.2923C77.1888 80.7499 77.13 80.153 77.2445 79.5771C77.3591 79.0012 77.6418 78.4722 78.057 78.057C78.4722 77.6418 79.0012 77.3591 79.5771 77.2445C80.153 77.13 80.7499 77.1888 81.2923 77.4135C81.8348 77.6382 82.2985 78.0187 82.6247 78.5069C82.9509 78.9951 83.125 79.5691 83.125 80.1562C83.125 80.9436 82.8122 81.6987 82.2555 82.2555C81.6987 82.8122 80.9436 83.125 80.1562 83.125ZM80.1562 38.5938C78.3203 38.5992 76.531 39.1729 75.0341 40.236C73.5373 41.2991 72.4062 42.7995 71.7962 44.5312H53.4375V50.4688H71.7962C72.3432 52.0041 73.3016 53.3596 74.5668 54.3871C75.8319 55.4146 77.3552 56.0746 78.9701 56.2949C80.585 56.5153 82.2294 56.2875 83.7236 55.6365C85.2178 54.9855 86.5043 53.9363 87.4426 52.6035C88.3808 51.2708 88.9347 49.7058 89.0436 48.0796C89.1526 46.4534 88.8125 44.8285 88.0604 43.3825C87.3084 41.9365 86.1734 40.7251 84.7794 39.8805C83.3854 39.036 81.7861 38.5908 80.1562 38.5938ZM80.1562 50.4688C79.5691 50.4688 78.9951 50.2946 78.5069 49.9684C78.0187 49.6422 77.6382 49.1786 77.4135 48.6361C77.1888 48.0936 77.13 47.4967 77.2445 46.9208C77.3591 46.3449 77.6418 45.816 78.057 45.4008C78.4722 44.9856 79.0012 44.7028 79.5771 44.5883C80.153 44.4737 80.7499 44.5325 81.2923 44.7572C81.8348 44.9819 82.2985 45.3624 82.6247 45.8507C82.9509 46.3389 83.125 46.9128 83.125 47.5C83.125 48.2874 82.8122 49.0425 82.2555 49.5992C81.6987 50.156 80.9436 50.4688 80.1562 50.4688ZM80.1562 5.9375C77.7949 5.93986 75.5309 6.87895 73.8612 8.54869C72.1914 10.2184 71.2524 12.4824 71.25 14.8438C71.2601 16.2659 71.6146 17.6645 72.2831 18.9198L61.1444 29.6875H53.4375V35.625H63.5431L76.6056 23.0019C77.819 23.531 79.1352 23.7829 80.4582 23.7392C81.7813 23.6955 83.0779 23.3574 84.2538 22.7493C85.4297 22.1413 86.4552 21.2787 87.2556 20.2244C88.0561 19.17 88.6113 17.9505 88.881 16.6545C89.1507 15.3585 89.1279 14.0186 88.8145 12.7325C88.501 11.4464 87.9047 10.2463 87.0689 9.21976C86.2332 8.19317 85.179 7.36587 83.9832 6.79808C82.7874 6.23028 81.48 5.93629 80.1562 5.9375ZM80.1562 17.8125C79.5691 17.8125 78.9951 17.6384 78.5069 17.3122C78.0187 16.986 77.6382 16.5223 77.4135 15.9798C77.1888 15.4374 77.13 14.8405 77.2445 14.2646C77.3591 13.6887 77.6418 13.1597 78.057 12.7445C78.4722 12.3293 79.0012 12.0466 79.5771 11.932C80.153 11.8175 80.7499 11.8763 81.2923 12.101C81.8348 12.3257 82.2985 12.7062 82.6247 13.1944C82.9509 13.6826 83.125 14.2566 83.125 14.8438C83.125 15.6311 82.8122 16.3862 82.2555 16.943C81.6987 17.4997 80.9436 17.8125 80.1562 17.8125Z" fill="white"/>
<path id="Vector_2" d="M53.4375 17.8125H59.375V11.875H53.4375C51.7457 11.8807 50.0748 12.2499 48.5382 12.9578C47.0015 13.6657 45.635 14.6956 44.5312 15.9778C43.4275 14.6956 42.061 13.6657 40.5243 12.9578C38.9877 12.2499 37.3168 11.8807 35.625 11.875H32.6562C25.5724 11.8829 18.781 14.7004 13.7719 19.7094C8.76288 24.7185 5.94536 31.5099 5.9375 38.5938V56.4062C5.94536 63.4901 8.76288 70.2815 13.7719 75.2906C18.781 80.2996 25.5724 83.1171 32.6562 83.125H35.625C37.3168 83.1193 38.9877 82.7501 40.5243 82.0422C42.061 81.3343 43.4275 80.3044 44.5312 79.0222C45.635 80.3044 47.0015 81.3343 48.5382 82.0422C50.0748 82.7501 51.7457 83.1193 53.4375 83.125H59.375V77.1875H53.4375C51.8633 77.1859 50.3539 76.5599 49.2408 75.4467C48.1276 74.3336 47.5016 72.8242 47.5 71.25V23.75C47.5016 22.1758 48.1276 20.6664 49.2408 19.5533C50.3539 18.4401 51.8633 17.8141 53.4375 17.8125ZM35.625 77.1875H32.6562C27.6641 77.1786 22.8418 75.3742 19.07 72.1038C15.2982 68.8335 12.8287 64.3155 12.1125 59.375H17.8125V53.4375H11.875V41.5625H20.7812C23.1426 41.5601 25.4066 40.6211 27.0763 38.9513C28.7461 37.2816 29.6851 35.0176 29.6875 32.6562V26.7188H23.75V32.6562C23.75 33.4436 23.4372 34.1987 22.8805 34.7555C22.3237 35.3122 21.5686 35.625 20.7812 35.625H12.1125C12.8287 30.6845 15.2982 26.1665 19.07 22.8962C22.8418 19.6258 27.6641 17.8214 32.6562 17.8125H35.625C37.1992 17.8141 38.7086 18.4401 39.8217 19.5533C40.9349 20.6664 41.5609 22.1758 41.5625 23.75V35.625H35.625V41.5625H41.5625V53.4375H35.625C33.2636 53.4399 30.9997 54.3789 29.3299 56.0487C27.6602 57.7184 26.7211 59.9824 26.7188 62.3438V68.2812H32.6562V62.3438C32.6562 61.5564 32.969 60.8013 33.5258 60.2445C34.0825 59.6878 34.8376 59.375 35.625 59.375H41.5625V71.25C41.5609 72.8242 40.9349 74.3336 39.8217 75.4467C38.7086 76.5599 37.1992 77.1859 35.625 77.1875Z" fill="white"/>
</g>
</svg>
