<svg width="95" height="95" viewBox="0 0 95 95" fill="none" xmlns="http://www.w3.org/2000/svg">
<path d="M71.25 71.25V77.1875H78.5531C76.8936 79.0598 74.8547 80.5576 72.5718 81.5813C70.289 82.605 67.8144 83.1312 65.3125 83.125C60.59 83.1195 56.0625 81.2411 52.7232 77.9018C49.3839 74.5625 47.5055 70.035 47.5 65.3125H41.5625C41.5528 70.1418 43.0185 74.8588 45.7634 78.8322C48.5083 82.8055 52.4014 85.8456 56.9216 87.5456C61.4418 89.2455 66.3735 89.5241 71.0564 88.3441C75.7393 87.1642 79.95 84.5819 83.125 80.943V89.0625H89.0625V71.25H71.25ZM65.3125 41.5625C61.9382 41.5799 58.606 42.3126 55.5356 43.7122C52.4652 45.1118 49.7264 47.1465 47.5 49.682V41.5625H41.5625V59.375H59.375V53.4375H52.0719C53.7314 51.5652 55.7703 50.0674 58.0532 49.0437C60.336 48.02 62.8106 47.4938 65.3125 47.5C70.035 47.5055 74.5625 49.3839 77.9018 52.7232C81.2411 56.0625 83.1195 60.59 83.125 65.3125H89.0625C89.0546 59.016 86.5499 52.9797 82.0976 48.5274C77.6453 44.0751 71.609 41.5704 65.3125 41.5625Z" fill="white"/>
<path d="M35.625 83.125H17.8125V71.25H23.75V65.3125H17.8125V50.4688H23.75V44.5312H17.8125V29.6875H23.75V23.75H17.8125V11.875H71.25V35.625H77.1875V11.875C77.1875 10.3003 76.5619 8.79005 75.4484 7.67655C74.3349 6.56306 72.8247 5.9375 71.25 5.9375H17.8125C16.2378 5.9375 14.7276 6.56306 13.6141 7.67655C12.5006 8.79005 11.875 10.3003 11.875 11.875V23.75H5.9375V29.6875H11.875V44.5312H5.9375V50.4688H11.875V65.3125H5.9375V71.25H11.875V83.125C11.875 84.6997 12.5006 86.2099 13.6141 87.3234C14.7276 88.4369 16.2378 89.0625 17.8125 89.0625H35.625V83.125Z" fill="white"/>
</svg>
