<svg xmlns="http://www.w3.org/2000/svg" width="50" height="50" viewBox="-50 0 175 50" fill="none">
  <path d="M25 8.33301C15.7938 8.33301 8.33334 15.7955 8.33334 24.9997C8.33334 34.2038 15.7938 41.6663 25 41.6663C34.2063 41.6663 41.6667 34.2038 41.6667 24.9997C41.6667 15.7955 34.2063 8.33301 25 8.33301ZM32.7229 29.7768C33.1136 30.1674 33.333 30.6972 33.333 31.2497C33.333 31.8021 33.1136 32.3319 32.7229 32.7226C32.3323 33.1132 31.8025 33.3327 31.25 33.3327C30.6976 33.3327 30.1677 33.1132 29.7771 32.7226L25 27.9455L20.2229 32.7226C20.0299 32.9167 19.8004 33.0708 19.5476 33.1759C19.2948 33.281 19.0238 33.3352 18.75 33.3352C18.4762 33.3352 18.2052 33.281 17.9524 33.1759C17.6996 33.0708 17.4701 32.9167 17.2771 32.7226C17.0835 32.5293 16.9298 32.2997 16.825 32.047C16.7202 31.7942 16.6663 31.5233 16.6663 31.2497C16.6663 30.9761 16.7202 30.7051 16.825 30.4524C16.9298 30.1997 17.0835 29.9701 17.2771 29.7768L22.0542 24.9997L17.2771 20.2226C16.8865 19.8319 16.667 19.3021 16.667 18.7497C16.667 18.1972 16.8865 17.6674 17.2771 17.2768C17.6677 16.8861 18.1976 16.6667 18.75 16.6667C19.3025 16.6667 19.8323 16.8861 20.2229 17.2768L25 22.0538L29.7771 17.2768C30.1677 16.8861 30.6976 16.6667 31.25 16.6667C31.8025 16.6667 32.3323 16.8861 32.7229 17.2768C33.1136 17.6674 33.333 18.1972 33.333 18.7497C33.333 19.3021 33.1136 19.8319 32.7229 20.2226L27.9458 24.9997L32.7229 29.7768Z" fill="#1B2845"/>
</svg>