<svg width="95" height="95" viewBox="0 0 95 95" fill="none" xmlns="http://www.w3.org/2000/svg">
<path d="M41.5625 59.375C41.5625 61.9108 41.0522 64.3229 40.0317 66.6113C39.0112 68.8997 37.5423 70.9098 35.625 72.6416V93.8867L23.75 87.9492L11.875 93.8867V72.6416C9.98861 70.9408 8.53516 68.9461 7.51465 66.6577C6.49414 64.3693 5.96842 61.9417 5.9375 59.375C5.9375 56.932 6.40137 54.6281 7.3291 52.4634C8.25684 50.2987 9.52474 48.4123 11.1328 46.8042C12.7409 45.1961 14.6273 43.9128 16.792 42.9541C18.9567 41.9954 21.276 41.5316 23.75 41.5625C26.193 41.5625 28.4969 42.0264 30.6616 42.9541C32.8263 43.8818 34.7127 45.1652 36.3208 46.8042C37.9289 48.4432 39.1968 50.3296 40.1245 52.4634C41.0522 54.5972 41.5316 56.901 41.5625 59.375ZM23.75 71.25C25.389 71.25 26.9198 70.9408 28.3423 70.3223C29.7648 69.7038 31.0327 68.8534 32.146 67.771C33.2593 66.6886 34.1097 65.4362 34.6973 64.0137C35.2848 62.5911 35.5941 61.0449 35.625 59.375C35.625 57.736 35.3158 56.2052 34.6973 54.7827C34.0788 53.3602 33.2284 52.0923 32.146 50.979C31.0636 49.8657 29.8112 49.0153 28.3887 48.4277C26.9661 47.8402 25.4199 47.5309 23.75 47.5C22.111 47.5 20.5802 47.8092 19.1577 48.4277C17.7352 49.0462 16.4673 49.8966 15.354 50.979C14.2407 52.0614 13.3903 53.3138 12.8027 54.7363C12.2152 56.1589 11.9059 57.7051 11.875 59.375C11.875 61.014 12.1842 62.5448 12.8027 63.9673C13.4212 65.3898 14.2716 66.6577 15.354 67.771C16.4364 68.8843 17.6888 69.7347 19.1113 70.3223C20.5339 70.9098 22.0801 71.2191 23.75 71.25ZM29.6875 76.167C27.8011 76.8473 25.8993 77.1875 23.9819 77.1875C21.8172 77.1875 19.7607 76.8473 17.8125 76.167V84.2383L23.75 81.2695L29.6875 84.2383V76.167ZM89.0625 25.4663V95H41.5625V89.0625H83.125V29.6875H59.375V5.9375H17.8125V34.8828C16.792 35.1302 15.7869 35.4395 14.7974 35.8105C13.8078 36.1816 12.8337 36.6146 11.875 37.1094V0H63.5962L89.0625 25.4663ZM78.9038 23.75L65.3125 10.1587V23.75H78.9038Z" fill="white"/>
</svg>
