<svg width="95" height="95" viewBox="0 0 95 95" fill="none" xmlns="http://www.w3.org/2000/svg">
<g id="mdi:report-box-plus-outline">
<path id="Vector" d="M87.0833 19.791V27.7077H75.2083V39.5827H67.2917V27.7077H55.4167V19.791H67.2917V7.91602H75.2083V19.791H87.0833ZM75.2083 75.2077H19.7917V19.791H43.5417V11.8743H19.7917C15.4375 11.8743 11.875 15.4368 11.875 19.791V75.2077C11.875 79.5618 15.4375 83.1243 19.7917 83.1243H75.2083C79.5625 83.1243 83.125 79.5618 83.125 75.2077V51.4577H75.2083V75.2077ZM59.375 51.4577V67.291H67.2917V51.4577H59.375ZM43.5417 67.291H51.4583V35.6243H43.5417V67.291ZM35.625 67.291V43.541H27.7083V67.291H35.625Z" fill="white"/>
</g>
</svg>
