<svg width="95" height="95" viewBox="0 0 95 95" fill="none" xmlns="http://www.w3.org/2000/svg">
<path d="M50.4688 50.4688H65.7341C66.4566 53.2673 68.1751 55.7062 70.5672 57.3284C72.9594 58.9505 75.861 59.6446 78.7283 59.2804C81.5956 58.9162 84.2316 57.5188 86.1422 55.3501C88.0529 53.1814 89.107 50.3903 89.107 47.5C89.107 44.6097 88.0529 41.8187 86.1422 39.65C84.2316 37.4813 81.5956 36.0839 78.7283 35.7197C75.861 35.3555 72.9594 36.0495 70.5672 37.6717C68.1751 39.2938 66.4566 41.7328 65.7341 44.5313H50.4688V20.7813H65.7341C66.4566 23.5798 68.1751 26.0187 70.5672 27.6409C72.9594 29.263 75.861 29.9571 78.7283 29.5929C81.5956 29.2287 84.2316 27.8313 86.1422 25.6626C88.0529 23.4939 89.107 20.7028 89.107 17.8125C89.107 14.9222 88.0529 12.1312 86.1422 9.96246C84.2316 7.79377 81.5956 6.39637 78.7283 6.03218C75.861 5.66799 72.9594 6.36202 70.5672 7.98418C68.1751 9.60634 66.4566 12.0453 65.7341 14.8438H50.4688C48.8945 14.8454 47.3852 15.4714 46.272 16.5846C45.1589 17.6977 44.5328 19.207 44.5313 20.7813V44.5313H29.2659C28.5434 41.7328 26.8249 39.2938 24.4328 37.6717C22.0406 36.0495 19.139 35.3555 16.2717 35.7197C13.4045 36.0839 10.7685 37.4813 8.8578 39.65C6.94714 41.8187 5.89302 44.6097 5.89302 47.5C5.89302 50.3903 6.94714 53.1814 8.8578 55.3501C10.7685 57.5188 13.4045 58.9162 16.2717 59.2804C19.139 59.6446 22.0406 58.9505 24.4328 57.3284C26.8249 55.7062 28.5434 53.2673 29.2659 50.4688H44.5313V74.2188C44.5328 75.793 45.1589 77.3023 46.272 78.4155C47.3852 79.5286 48.8945 80.1547 50.4688 80.1563H65.7341C66.4566 82.9548 68.1751 85.3937 70.5672 87.0159C72.9594 88.638 75.861 89.3321 78.7283 88.9679C81.5956 88.6037 84.2316 87.2063 86.1422 85.0376C88.0529 82.8689 89.107 80.0778 89.107 77.1875C89.107 74.2972 88.0529 71.5062 86.1422 69.3375C84.2316 67.1688 81.5956 65.7714 78.7283 65.4072C75.861 65.043 72.9594 65.737 70.5672 67.3592C68.1751 68.9813 66.4566 71.4203 65.7341 74.2188H50.4688V50.4688ZM77.1875 41.5625C78.3618 41.5625 79.5098 41.9108 80.4862 42.5632C81.4626 43.2156 82.2236 44.1429 82.673 45.2278C83.1224 46.3128 83.24 47.5066 83.0109 48.6584C82.7818 49.8101 82.2163 50.8681 81.3859 51.6985C80.5556 52.5288 79.4976 53.0943 78.3459 53.3234C77.1941 53.5525 76.0003 53.435 74.9153 52.9856C73.8304 52.5362 72.9031 51.7751 72.2507 50.7987C71.5982 49.8223 71.25 48.6744 71.25 47.5C71.2516 45.9258 71.8776 44.4165 72.9908 43.3033C74.104 42.1902 75.6133 41.5641 77.1875 41.5625ZM77.1875 11.875C78.3618 11.875 79.5098 12.2233 80.4862 12.8757C81.4626 13.5281 82.2236 14.4554 82.673 15.5403C83.1224 16.6253 83.24 17.8191 83.0109 18.9709C82.7818 20.1226 82.2163 21.1806 81.3859 22.011C80.5556 22.8413 79.4976 23.4068 78.3459 23.6359C77.1941 23.865 76.0003 23.7475 74.9153 23.2981C73.8304 22.8487 72.9031 22.0876 72.2507 21.1112C71.5982 20.1348 71.25 18.9869 71.25 17.8125C71.2516 16.2383 71.8776 14.729 72.9908 13.6158C74.104 12.5027 75.6133 11.8766 77.1875 11.875ZM17.8125 53.4375C16.6382 53.4375 15.4902 53.0893 14.5138 52.4369C13.5374 51.7845 12.7764 50.8572 12.327 49.7722C11.8776 48.6873 11.76 47.4934 11.9891 46.3417C12.2182 45.1899 12.7837 44.132 13.6141 43.3016C14.4444 42.4712 15.5024 41.9057 16.6542 41.6766C17.8059 41.4475 18.9997 41.5651 20.0847 42.0145C21.1696 42.4639 22.0969 43.2249 22.7494 44.2013C23.4018 45.1777 23.75 46.3257 23.75 47.5C23.7484 49.0743 23.1224 50.5836 22.0092 51.6967C20.8961 52.8099 19.3867 53.436 17.8125 53.4375ZM77.1875 71.25C78.3618 71.25 79.5098 71.5983 80.4862 72.2507C81.4626 72.9031 82.2236 73.8304 82.673 74.9153C83.1224 76.0003 83.24 77.1941 83.0109 78.3459C82.7818 79.4976 82.2163 80.5556 81.3859 81.386C80.5556 82.2163 79.4976 82.7818 78.3459 83.0109C77.1941 83.24 76.0003 83.1225 74.9153 82.6731C73.8304 82.2237 72.9031 81.4626 72.2507 80.4862C71.5982 79.5098 71.25 78.3619 71.25 77.1875C71.2516 75.6133 71.8776 74.104 72.9908 72.9908C74.104 71.8777 75.6133 71.2516 77.1875 71.25Z" fill="white"/>
</svg>
