<svg width="95" height="95" viewBox="0 0 95 95" fill="none" xmlns="http://www.w3.org/2000/svg">
<g id="fluent-mdl2:analytics-report" clip-path="url(#clip0_34_64)">
<path id="Vector" d="M5.9375 47.5C5.9375 52.1077 6.64876 56.5145 8.07129 60.7202C9.49382 64.9259 11.5194 68.7915 14.1479 72.3169C16.7765 75.8423 19.9154 78.8883 23.5645 81.4551C27.2135 84.0218 31.2337 85.9701 35.625 87.2998V93.4229C30.3988 92.0622 25.6055 89.9284 21.2451 87.0215C16.8848 84.1146 13.1274 80.6201 9.97314 76.5381C6.81885 72.4561 4.37581 67.9565 2.64404 63.0396C0.912272 58.1226 0.0309245 52.9427 0 47.5C0 43.1396 0.556641 38.9339 1.66992 34.8828C2.7832 30.8317 4.39128 27.0589 6.49414 23.5645C8.597 20.07 11.071 16.8693 13.916 13.9624C16.7611 11.0555 19.9618 8.56608 23.5181 6.49414C27.0744 4.4222 30.8626 2.82959 34.8828 1.71631C38.903 0.603027 43.1087 0.0309245 47.5 0C51.6748 0 55.695 0.510254 59.5605 1.53076C63.4261 2.55127 67.0752 4.02018 70.5078 5.9375C73.9404 7.85482 77.0793 10.1587 79.9243 12.8491C82.7694 15.5396 85.2588 18.5238 87.3926 21.8018C89.5264 25.0798 91.2272 28.6361 92.4951 32.4707C93.763 36.3053 94.5516 40.2791 94.8608 44.3921L87.7173 37.2485C86.5422 32.6717 84.6867 28.466 82.1509 24.6313C79.6151 20.7967 76.5536 17.4878 72.9663 14.7046C69.3791 11.9214 65.4362 9.77214 61.1377 8.25684C56.8392 6.74154 52.2933 5.96842 47.5 5.9375C43.6654 5.9375 39.9854 6.43229 36.46 7.42188C32.9346 8.41146 29.6411 9.80306 26.5796 11.5967C23.5181 13.3903 20.7039 15.5705 18.1372 18.1372C15.5705 20.7039 13.4058 23.5026 11.6431 26.5332C9.88037 29.5638 8.47331 32.8727 7.42188 36.46C6.37044 40.0472 5.87565 43.7272 5.9375 47.5ZM47.5 23.75C44.222 23.75 41.145 24.3685 38.269 25.6055C35.3931 26.8424 32.8882 28.5433 30.7544 30.708C28.6206 32.8727 26.9198 35.3931 25.6519 38.269C24.384 41.145 23.75 44.222 23.75 47.5C23.75 50.6852 24.3376 53.7158 25.5127 56.5918C26.6878 59.4678 28.4196 62.0345 30.708 64.292L26.4868 68.5132C23.6727 65.6991 21.5234 62.4829 20.0391 58.8647C18.5547 55.2466 17.8125 51.4583 17.8125 47.5C17.8125 44.7786 18.1681 42.1501 18.8794 39.6143C19.5907 37.0784 20.5802 34.7127 21.8481 32.5171C23.116 30.3215 24.6623 28.3268 26.4868 26.5332C28.3114 24.7396 30.3215 23.1934 32.5171 21.8945C34.7127 20.5957 37.0784 19.5907 39.6143 18.8794C42.1501 18.1681 44.7786 17.8125 47.5 17.8125C49.8193 17.8125 52.0923 18.0754 54.3188 18.6011C56.5454 19.1268 58.6637 19.9154 60.6738 20.9668C62.6839 22.0182 64.5858 23.2552 66.3794 24.6777C68.173 26.1003 69.7502 27.7702 71.1108 29.6875H63.0396C60.8748 27.7702 58.4782 26.3013 55.8496 25.2808C53.221 24.2603 50.4378 23.75 47.5 23.75ZM75.4712 35.625L95 55.1538V95H41.5625V35.625H75.4712ZM77.1875 45.7837V53.4375H84.8413L77.1875 45.7837ZM89.0625 89.0625V59.375H71.25V41.5625H47.5V89.0625H89.0625ZM83.125 65.3125V83.125H77.1875V65.3125H83.125ZM53.4375 83.125V59.375H59.375V83.125H53.4375ZM65.3125 83.125V71.25H71.25V83.125H65.3125Z" fill="white"/>
</g>
<defs>
<clipPath id="clip0_34_64">
<rect width="95" height="95" fill="white"/>
</clipPath>
</defs>
</svg>
