<svg width="95" height="95" viewBox="0 0 95 95" fill="none" xmlns="http://www.w3.org/2000/svg">
<g id="fluent:learning-app-24-regular">
<path id="Vector" d="M21.7708 7.91675C19.1463 7.91675 16.6293 8.95934 14.7734 10.8152C12.9176 12.671 11.875 15.188 11.875 17.8126V77.1876C11.875 79.8121 12.9176 82.3292 14.7734 84.185C16.6293 86.0408 19.1463 87.0834 21.7708 87.0834H50.7062C49.0092 85.3168 47.5724 83.3176 46.4392 81.1459H21.7708C20.721 81.1459 19.7142 80.7289 18.9719 79.9865C18.2295 79.2442 17.8125 78.2374 17.8125 77.1876H44.7806C44.1596 75.2613 43.769 73.2682 43.6169 71.2501H17.8125V17.8126C17.8125 16.7628 18.2295 15.7559 18.9719 15.0136C19.7142 14.2713 20.721 13.8542 21.7708 13.8542H67.2917C68.3415 13.8542 69.3483 14.2713 70.0906 15.0136C70.833 15.7559 71.25 16.7628 71.25 17.8126V43.617C73.3083 43.7753 75.2954 44.1711 77.1875 44.7807V17.8126C77.1875 15.188 76.1449 12.671 74.2891 10.8152C72.4332 8.95934 69.9162 7.91675 67.2917 7.91675H21.7708ZM91.0417 69.2709C91.0417 63.4969 88.748 57.9594 84.6651 53.8766C80.5823 49.7938 75.0448 47.5001 69.2708 47.5001C63.4968 47.5001 57.9594 49.7938 53.8765 53.8766C49.7937 57.9594 47.5 63.4969 47.5 69.2709C47.5 75.0449 49.7937 80.5824 53.8765 84.6652C57.9594 88.748 63.4968 91.0417 69.2708 91.0417C75.0448 91.0417 80.5823 88.748 84.6651 84.6652C88.748 80.5824 91.0417 75.0449 91.0417 69.2709ZM66.9512 59.759L78.0583 67.0424C78.4025 67.2633 78.6848 67.5681 78.8787 67.9282C79.0726 68.2883 79.1717 68.6918 79.1667 69.1007C79.1671 69.5123 79.0694 69.918 78.8817 70.2842C78.7045 70.6467 78.434 70.9555 78.0979 71.1788L66.9869 78.759C66.7935 78.8891 66.583 78.9917 66.3615 79.0638C65.847 79.2281 65.2899 79.1957 64.7979 78.9728C64.5144 78.84 64.2559 78.6592 64.034 78.4384C63.8196 78.205 63.6457 77.9374 63.5194 77.6467C63.3957 77.3495 63.3325 77.0306 63.3333 76.7086V61.8332C63.3313 61.3569 63.4674 60.8902 63.7253 60.4898C63.9831 60.0893 64.3516 59.7722 64.786 59.577C65.1311 59.4152 65.5125 59.3466 65.8924 59.3778C66.2722 59.4091 66.6372 59.5391 66.9512 59.7551M23.75 23.7501C23.75 22.7003 24.167 21.6934 24.9094 20.9511C25.6517 20.2088 26.6585 19.7917 27.7083 19.7917H59.375C60.4248 19.7917 61.4316 20.2088 62.174 20.9511C62.9163 21.6934 63.3333 22.7003 63.3333 23.7501V31.6667C63.3333 32.7166 62.9163 33.7234 62.174 34.4657C61.4316 35.208 60.4248 35.6251 59.375 35.6251H27.7083C26.6585 35.6251 25.6517 35.208 24.9094 34.4657C24.167 33.7234 23.75 32.7166 23.75 31.6667V23.7501ZM29.6875 29.6876H57.3958V25.7292H29.6875V29.6876Z" fill="white"/>
</g>
</svg>
