<svg width="95" height="95" viewBox="0 0 95 95" fill="none" xmlns="http://www.w3.org/2000/svg">
<g id="mdi:register">
<path id="Vector" d="M59.375 55.4166C48.8062 55.4166 27.7083 60.6812 27.7083 71.2499V79.1666H91.0416V71.2499C91.0416 60.6812 69.9437 55.4166 59.375 55.4166ZM23.75 39.5833V27.7083H15.8333V39.5833H3.95831V47.4999H15.8333V59.3749H23.75V47.4999H35.625V39.5833M59.375 47.4999C63.5742 47.4999 67.6015 45.8318 70.5708 42.8624C73.5402 39.8931 75.2083 35.8658 75.2083 31.6666C75.2083 27.4673 73.5402 23.4401 70.5708 20.4707C67.6015 17.5014 63.5742 15.8333 59.375 15.8333C55.1757 15.8333 51.1484 17.5014 48.1791 20.4707C45.2098 23.4401 43.5416 27.4673 43.5416 31.6666C43.5416 35.8658 45.2098 39.8931 48.1791 42.8624C51.1484 45.8318 55.1757 47.4999 59.375 47.4999Z" fill="white"/>
</g>
</svg>
