<svg width="95" height="95" viewBox="0 0 95 95" fill="none" xmlns="http://www.w3.org/2000/svg">
<path d="M73.1055 65.4884V17.8121C73.1055 16.9957 72.4375 16.3277 71.6211 16.3277H55.8496V9.9449C55.8496 9.38826 55.2002 9.07283 54.7642 9.41609L42.9263 18.7677C42.8462 18.8295 42.7813 18.909 42.7367 18.9998C42.6921 19.0907 42.6689 19.1906 42.6689 19.2918C42.6689 19.3931 42.6921 19.4929 42.7367 19.5838C42.7813 19.6747 42.8462 19.7541 42.9263 19.816L54.7549 29.1676C55.1909 29.5108 55.8403 29.2047 55.8403 28.6387V22.2652H66.4165V65.4884C62.3159 66.88 59.3657 70.7672 59.3657 75.3316C59.3657 81.065 64.023 85.7222 69.7564 85.7222C75.4897 85.7222 80.147 81.065 80.147 75.3316C80.1562 70.7672 77.2061 66.8892 73.1055 65.4884ZM69.7656 79.7847C68.6003 79.7609 67.4908 79.2813 66.6751 78.4488C65.8593 77.6163 65.4025 76.4972 65.4025 75.3316C65.4025 74.1661 65.8593 73.047 66.6751 72.2144C67.4908 71.3819 68.6003 70.9023 69.7656 70.8785C70.9309 70.9023 72.0405 71.3819 72.8562 72.2144C73.6719 73.047 74.1288 74.1661 74.1288 75.3316C74.1288 76.4972 73.6719 77.6163 72.8562 78.4488C72.0405 79.2813 70.9309 79.7609 69.7656 79.7847ZM35.625 19.6676C35.625 13.9342 30.9678 9.27693 25.2344 9.27693C19.501 9.27693 14.8438 13.9342 14.8438 19.6676C14.8438 24.232 17.7939 28.1099 21.8945 29.5108V65.4976C17.7939 66.8892 14.8438 70.7764 14.8438 75.3409C14.8438 81.0743 19.501 85.7315 25.2344 85.7315C30.9678 85.7315 35.625 81.0743 35.625 75.3409C35.625 70.7764 32.6748 66.8985 28.5742 65.4976V29.5108C32.6748 28.1099 35.625 24.232 35.625 19.6676ZM20.7812 19.6676C20.805 18.5023 21.2847 17.3927 22.1172 16.577C22.9497 15.7613 24.0688 15.3044 25.2344 15.3044C26.3999 15.3044 27.519 15.7613 28.3516 16.577C29.1841 17.3927 29.6637 18.5023 29.6875 19.6676C29.6637 20.8329 29.1841 21.9424 28.3516 22.7581C27.519 23.5738 26.3999 24.0307 25.2344 24.0307C24.0688 24.0307 22.9497 23.5738 22.1172 22.7581C21.2847 21.9424 20.805 20.8329 20.7812 19.6676ZM29.6875 75.3316C29.6637 76.4969 29.1841 77.6065 28.3516 78.4222C27.519 79.2379 26.3999 79.6948 25.2344 79.6948C24.0688 79.6948 22.9497 79.2379 22.1172 78.4222C21.2847 77.6065 20.805 76.4969 20.7812 75.3316C20.805 74.1663 21.2847 73.0568 22.1172 72.241C22.9497 71.4253 24.0688 70.9685 25.2344 70.9685C26.3999 70.9685 27.519 71.4253 28.3516 72.241C29.1841 73.0568 29.6637 74.1663 29.6875 75.3316Z" fill="white"/>
</svg>
