<svg width="95" height="95" viewBox="0 0 95 95" fill="none" xmlns="http://www.w3.org/2000/svg">
<path d="M62.3437 89.0625C57.6464 89.0625 53.0546 87.6696 49.149 85.0599C45.2433 82.4502 42.1992 78.741 40.4016 74.4012C38.604 70.0615 38.1337 65.2862 39.0501 60.6791C39.9665 56.0721 42.2285 51.8402 45.55 48.5187C48.8715 45.1972 53.1033 42.9353 57.7104 42.0189C62.3174 41.1025 67.0927 41.5728 71.4325 43.3704C75.7722 45.168 79.4815 48.2121 82.0911 52.1177C84.7008 56.0234 86.0937 60.6152 86.0937 65.3125C86.0937 71.6114 83.5915 77.6523 79.1375 82.1063C74.6835 86.5603 68.6426 89.0625 62.3437 89.0625ZM62.3437 47.5C58.8208 47.5 55.3769 48.5447 52.4476 50.502C49.5184 52.4592 47.2353 55.2412 45.8871 58.496C44.539 61.7508 44.1862 65.3323 44.8735 68.7876C45.5608 72.2428 47.2573 75.4167 49.7484 77.9079C52.2395 80.399 55.4134 82.0955 58.8687 82.7828C62.324 83.47 65.9055 83.1173 69.1603 81.7691C72.4151 80.4209 75.197 78.1379 77.1543 75.2086C79.1116 72.2794 80.1562 68.8355 80.1562 65.3125C80.1562 60.5883 78.2796 56.0577 74.9391 52.7172C71.5986 49.3767 67.0679 47.5 62.3437 47.5Z" fill="white"/>
<path d="M67.0641 74.2188L59.375 66.5297V53.4375H65.3125V64.0953L71.25 70.0328L67.0641 74.2188Z" fill="white"/>
<path d="M83.125 17.8125C83.125 16.2378 82.4994 14.7276 81.3859 13.6141C80.2724 12.5006 78.7622 11.875 77.1875 11.875H65.3125V5.9375H59.375V11.875H35.625V5.9375H29.6875V11.875H17.8125C16.2378 11.875 14.7276 12.5006 13.6141 13.6141C12.5006 14.7276 11.875 16.2378 11.875 17.8125V77.1875C11.875 78.7622 12.5006 80.2724 13.6141 81.3859C14.7276 82.4994 16.2378 83.125 17.8125 83.125H29.6875V77.1875H17.8125V17.8125H29.6875V23.75H35.625V17.8125H59.375V23.75H65.3125V17.8125H77.1875V35.625H83.125V17.8125Z" fill="white"/>
</svg>
