<svg width="95" height="95" viewBox="0 0 95 95" fill="none" xmlns="http://www.w3.org/2000/svg">
<path d="M39.9 18.9996C39.9 15.9761 38.6989 13.0765 36.561 10.9386C34.4231 8.80068 31.5235 7.59961 28.5 7.59961C25.4765 7.59961 22.5769 8.80068 20.439 10.9386C18.3011 13.0765 17.1 15.9761 17.1 18.9996C17.1 23.5929 19.836 27.5306 23.75 29.3356V65.6684C21.7682 66.5722 20.0878 68.0265 18.9089 69.8581C17.7299 71.6896 17.102 73.8214 17.1 75.9996C17.1 79.0231 18.3011 81.9227 20.439 84.0606C22.5769 86.1985 25.4765 87.3996 28.5 87.3996C31.5235 87.3996 34.4231 86.1985 36.561 84.0606C38.6989 81.9227 39.9 79.0231 39.9 75.9996C39.9 71.4064 37.164 67.4686 33.25 65.6636V29.3356C35.2315 28.43 36.9114 26.9746 38.0902 25.1424C39.269 23.3103 39.8971 21.1782 39.9 18.9996ZM35.074 75.9996C35.074 76.8635 34.9038 77.719 34.5732 78.5172C34.2426 79.3154 33.758 80.0406 33.1471 80.6515C32.5362 81.2624 31.811 81.747 31.0128 82.0776C30.2147 82.4082 29.3592 82.5784 28.4953 82.5784C27.6313 82.5784 26.7758 82.4082 25.9777 82.0776C25.1795 81.747 24.4543 81.2624 23.8434 80.6515C23.2325 80.0406 22.7479 79.3154 22.4173 78.5172C22.0867 77.719 21.9165 76.8635 21.9165 75.9996C21.9165 74.2548 22.6096 72.5815 23.8434 71.3477C25.0771 70.114 26.7505 69.4209 28.4953 69.4209C30.24 69.4209 31.9134 70.114 33.1471 71.3477C34.3809 72.5815 35.074 74.2548 35.074 75.9996ZM28.5 25.5784C26.7552 25.5777 25.0821 24.884 23.8488 23.6498C22.6155 22.4156 21.923 20.742 21.9236 18.9972C21.9243 17.2524 22.618 15.5794 23.8522 14.3461C25.0864 13.1127 26.76 12.4202 28.5048 12.4209C30.2502 12.4215 31.9239 13.1155 33.1576 14.3501C34.3914 15.5848 35.0841 17.2589 35.0835 19.0044C35.0829 20.7498 34.3889 22.4235 33.1543 23.6572C31.9196 24.891 30.2454 25.579 28.5 25.5784ZM71.25 65.6636V29.3356C73.2318 28.4304 74.9121 26.9752 76.0909 25.1429C77.2698 23.3106 77.8977 21.1784 77.9 18.9996C77.9 15.9761 76.6989 13.0765 74.561 10.9386C72.4231 8.80068 69.5235 7.59961 66.5 7.59961C63.4765 7.59961 60.5769 8.80068 58.439 10.9386C56.3011 13.0765 55.1 15.9761 55.1 18.9996C55.1 23.5929 57.836 27.5306 61.75 29.3356V65.6684C59.7682 66.5735 58.0879 68.0287 56.9091 69.861C55.7302 71.6933 55.1023 73.8256 55.1 76.0044C55.1 79.0278 56.3011 81.9275 58.439 84.0654C60.5769 86.2033 63.4765 87.4044 66.5 87.4044C69.5235 87.4044 72.4231 86.2033 74.561 84.0654C76.6989 81.9275 77.9 79.0278 77.9 76.0044C77.9 71.4064 75.1687 67.4686 71.25 65.6636ZM59.926 18.9996C59.926 17.2554 60.6189 15.5827 61.8522 14.3494C63.0855 13.1161 64.7582 12.4232 66.5024 12.4232C68.2465 12.4232 69.9193 13.1161 71.1526 14.3494C72.3859 15.5827 73.0787 17.2554 73.0787 18.9996C73.0327 20.7132 72.3196 22.3411 71.0913 23.5368C69.863 24.7325 68.2166 25.4016 66.5024 25.4016C64.7882 25.4016 63.1417 24.7325 61.9134 23.5368C60.6851 22.3411 59.9721 20.7132 59.926 18.9996ZM66.5 82.5784C64.7552 82.5784 63.0819 81.8852 61.8481 80.6515C60.6144 79.4177 59.9212 77.7444 59.9212 75.9996C59.9212 74.2548 60.6144 72.5815 61.8481 71.3477C63.0819 70.114 64.7552 69.4209 66.5 69.4209C68.2448 69.4209 69.9181 70.114 71.1519 71.3477C72.3856 72.5815 73.0787 74.2548 73.0787 75.9996C73.0787 77.7444 72.3856 79.4177 71.1519 80.6515C69.9181 81.8852 68.2448 82.5784 66.5 82.5784Z" fill="white"/>
</svg>
