<svg width="95" height="95" viewBox="0 0 95 95" fill="none" xmlns="http://www.w3.org/2000/svg">
<g id="raphael:people">
<path id="Vector" d="M62.5397 61.356C66.1823 59.3313 65.7103 51.5294 61.4887 43.9176C59.6778 40.6401 57.4512 37.986 55.2247 36.1305C52.5622 38.1065 49.3371 39.178 46.0216 39.1883C42.701 39.181 39.4702 38.1093 36.8036 36.1305C34.577 37.986 32.3564 40.643 30.5395 43.9176C26.315 51.5265 25.8489 59.3313 29.5005 61.356C31.1273 62.2823 32.8433 61.5876 34.6127 59.8835C34.2814 61.7194 34.1155 63.5814 34.1169 65.4469C34.1169 74.1691 37.5012 81.2169 41.6664 81.2169C44.178 81.2169 45.4219 78.649 46.0186 74.7213C46.6123 78.6223 47.8592 81.2169 50.353 81.2169C54.5003 81.2169 57.9114 74.1662 57.9114 65.4469C57.9114 63.4876 57.7273 61.6173 57.4127 59.8865C59.1939 61.5935 60.9039 62.3001 62.5367 61.3619L62.5397 61.356ZM46.0156 36.2196C47.7 36.2448 49.3725 35.9346 50.9359 35.3073C52.4993 34.68 53.9223 33.748 55.1222 32.5656C56.322 31.3831 57.2746 29.9738 57.9247 28.4198C58.5747 26.8657 58.9092 25.1978 58.9086 23.5133C58.908 21.8287 58.5724 20.1611 57.9212 18.6075C57.2701 17.0539 56.3164 15.6453 55.1158 14.4637C53.9152 13.2821 52.4915 12.351 50.9277 11.7248C49.3638 11.0986 47.6911 10.7897 46.0067 10.816C42.6716 10.8682 39.4909 12.2299 37.1512 14.6072C34.8116 16.9846 33.5009 20.1867 33.502 23.5222C33.5032 26.8577 34.8162 30.0589 37.1575 32.4346C39.4988 34.8103 42.6805 36.1698 46.0156 36.2196ZM71.5291 44.2768C74.2419 44.1975 76.8171 43.0641 78.7079 41.1172C80.5988 39.1702 81.6565 36.5631 81.6565 33.8491C81.6565 31.135 80.5988 28.5279 78.7079 26.5809C76.8171 24.634 74.2419 23.5006 71.5291 23.4213C68.7627 23.4217 66.1097 24.521 64.1539 26.4775C62.198 28.4339 61.0994 31.0871 61.0998 33.8535C61.1002 36.6199 62.1996 39.2728 64.156 41.2287C66.1124 43.1845 68.7656 44.2831 71.532 44.2827L71.5291 44.2768ZM84.2353 50.6002C82.745 47.9046 80.9222 45.7255 79.0934 44.2026C76.9059 45.8234 74.2575 46.7024 71.535 46.7112C69.2906 46.7112 67.2006 46.0966 65.3719 45.0784C66.8444 48.3232 67.7558 51.6096 67.925 54.5487C68.2041 59.0493 66.7969 62.3862 63.9825 63.9448C63.3793 64.2762 62.7235 64.5011 62.0439 64.6098C61.8747 65.7735 61.7589 66.9848 61.7589 68.2613C61.7589 75.4249 64.5347 81.211 67.9577 81.211C70.018 81.211 71.0452 79.1032 71.532 75.8791C72.0159 79.0854 73.0401 81.211 75.0945 81.211C78.4937 81.211 81.2992 75.4219 81.2992 68.2673C81.2992 66.6552 81.1419 65.1204 80.8836 63.6954C82.3442 65.0996 83.7514 65.6785 85.0933 64.9066C88.0828 63.2441 87.6969 56.8376 84.2323 50.5973L84.2353 50.6002ZM20.5022 44.2768C22.564 44.2756 24.5793 43.6631 26.2931 42.5168C28.0069 41.3704 29.3423 39.7416 30.1305 37.8364C30.9188 35.9311 31.1244 33.8349 30.7214 31.8128C30.3185 29.7907 29.325 27.9335 27.8666 26.476C26.4082 25.0184 24.5505 24.026 22.5281 23.6242C20.5058 23.2224 18.4097 23.4292 16.5049 24.2185C14.6001 25.0078 12.9721 26.3442 11.8267 28.0586C10.6813 29.7731 10.07 31.7887 10.07 33.8505C10.0708 36.6171 11.1701 39.2701 13.1264 41.2263C15.0826 43.1826 17.7356 44.2819 20.5022 44.2827V44.2768ZM28.028 63.9358C23.3017 61.3085 22.8683 53.474 26.6742 45.0724C24.793 46.1404 22.6684 46.7058 20.5052 46.7141C17.667 46.7141 15.0664 45.7641 12.9348 44.2026C11.1091 45.7226 9.28921 47.9016 7.79296 50.5943C4.32843 56.8405 3.94843 63.2471 6.94093 64.9037C8.27687 65.6696 9.68703 65.0966 11.1387 63.6983C10.8721 65.2057 10.738 66.7335 10.738 68.2643C10.738 75.4249 13.5137 81.208 16.9367 81.208C18.997 81.208 20.0242 79.1002 20.5111 75.8791C21.0009 79.0854 22.0252 81.211 24.0736 81.211C27.4787 81.211 30.2783 75.4219 30.2783 68.2673C30.2783 66.9818 30.1595 65.7676 29.9903 64.6038C29.3032 64.4955 28.6402 64.2685 28.0309 63.9329L28.028 63.9358Z" fill="white"/>
</g>
</svg>
